<svg xmlns="http://www.w3.org/2000/svg" xmlns:xlink="http://www.w3.org/1999/xlink" viewBox="0 0 58 58" version="1.1"><title>024 - Database Management</title><desc>Created with Sketch.</desc><defs></defs><g id="Page-1" stroke="none" stroke-width="1" fill="none" fill-rule="evenodd"><g id="024---Database-Management" fill-rule="nonzero"><path d="M45,19.26 L45,5 C45,2.24 34.93,0 22.5,0 C10.07,0 0,2.24 0,5 L0,53 C0,55.76 10.3,58 23,58 C26.4739588,58.0113687 29.9458999,57.8310949 33.4,57.46 L33.41,57.46 C34.9128266,57.8233177 36.4538868,58.0046189 38,58 C47.6742728,57.9985854 55.9610609,51.0739297 57.6812662,41.553822 C59.4014716,32.0337143 54.0620302,22.6469108 45,19.26 Z" id="Shape" fill="#8697CB"></path><ellipse id="Oval" fill="#556080" cx="22.5" cy="5" rx="22.5" ry="5"></ellipse><path d="M4,18 C3.44771525,18 3,17.5522847 3,17 L3,12 C3,11.4477153 3.44771525,11 4,11 C4.55228475,11 5,11.4477153 5,12 L5,17 C5,17.5522847 4.55228475,18 4,18 Z" id="Shape" fill="#A5A5A4" style="fill: rgb(255, 255, 255);"></path><path d="M8,19 C7.44771525,19 7,18.5522847 7,18 L7,13 C7,12.4477153 7.44771525,12 8,12 C8.55228475,12 9,12.4477153 9,13 L9,18 C9,18.5522847 8.55228475,19 8,19 Z" id="Shape" fill="#A5A5A4" style="fill: rgb(255, 255, 255);"></path><path d="M4,35 C3.44771525,35 3,34.5522847 3,34 L3,29 C3,28.4477153 3.44771525,28 4,28 C4.55228475,28 5,28.4477153 5,29 L5,34 C5,34.5522847 4.55228475,35 4,35 Z" id="Shape" fill="#A5A5A4" style="fill: rgb(255, 255, 255);"></path><path d="M8,36 C7.44771525,36 7,35.5522847 7,35 L7,30 C7,29.4477153 7.44771525,29 8,29 C8.55228475,29 9,29.4477153 9,30 L9,35 C9,35.5522847 8.55228475,36 8,36 Z" id="Shape" fill="#A5A5A4" style="fill: rgb(255, 255, 255);"></path><path d="M4,52 C3.44771525,52 3,51.5522847 3,51 L3,46 C3,45.4477153 3.44771525,45 4,45 C4.55228475,45 5,45.4477153 5,46 L5,51 C5,51.5522847 4.55228475,52 4,52 Z" id="Shape" fill="#A5A5A4" style="fill: rgb(255, 255, 255);"></path><path d="M8,53 C7.44771525,53 7,52.5522847 7,52 L7,47 C7,46.4477153 7.44771525,46 8,46 C8.55228475,46 9,46.4477153 9,47 L9,52 C9,52.5522847 8.55228475,53 8,53 Z" id="Shape" fill="#A5A5A4" style="fill: rgb(255, 255, 255);"></path><path d="M24.8,22.98 C23.4610218,24.1464048 22.2899122,25.4925078 21.32,26.98 C9.4,26.8 0,24.64 0,22 L0,18 C0,20.76 10.3,23 23,23 C23.61,23 24.21,23 24.8,22.98 Z" id="Shape" fill="#556080"></path><path d="M18.89,43.91 C8.15,43.5 0,41.45 0,39 L0,35 C0,37.39 7.75,39.39 18.09,39.89 C18.216466,41.2541274 18.4845772,42.6013864 18.89,43.91 Z" id="Shape" fill="#556080"></path><path d="M48,55.31 C44.9636065,57.0761842 41.5127015,58.0044776 38,58 C36.4538868,58.0046189 34.9128266,57.8233177 33.41,57.46 L33.4,57.46 C26.5052085,55.8313151 20.9860998,50.6773576 18.89,43.91 C18.4845772,42.6013864 18.216466,41.2541274 18.09,39.89 C18.03,39.26996 18,38.63996 18,38 L30.94,38 C30.9379833,40.5230329 32.2835881,42.8550513 34.4689692,44.1159274 C36.6543502,45.3768036 39.3467389,45.3745434 41.53,44.11 L48,55.31 Z" id="Shape" fill="#F3D55B" style="fill: rgb(158, 158, 158);"></path><path d="M31.89,34.47 C31.268891,35.5428474 30.9412388,36.7603325 30.9399989,38 L17.9999675,38 C17.9954774,34.4872947 18.9237739,31.0363824 20.6899869,28 L31.89,34.47 Z" id="Shape" fill="#FF5364" style="fill: rgb(98, 91, 91);"></path><path d="M58.0000133,38 L45.0600023,38 C45.0535555,34.1035418 41.8964582,30.9464445 38,30.9399977 L38,17.9999867 C43.3056576,17.995664 48.3952534,20.1014111 52.1469211,23.8530789 C55.8985889,27.6047466 58.004336,32.6943424 58.0000133,38 Z" id="Shape" fill="#71C285" style="fill: rgb(207, 207, 207);"></path><path d="M58.0000095,38 C58.0049137,45.1438791 54.1911134,51.7455656 48.0000019,55.31 L41.53,44.11 C43.7106258,42.8471268 45.0551551,40.5199109 45.060001,38 L58.0000095,38 Z" id="Shape" fill="#7D6599" style="fill: rgb(94, 93, 95);"></path><path d="M38,17.9999543 L38,30.9399951 C35.4800891,30.944841 33.1528732,32.2893719 31.89,34.47 L20.69,27.9999911 C20.8808923,27.6485533 21.0912183,27.3080251 21.32,26.9799896 C22.2899122,25.4924954 23.4610218,24.1463905 24.8,22.9799841 C28.4443659,19.7639711 33.1395412,17.9926071 38,17.9999543 Z" id="Shape" fill="#A5A5A4" style="fill: rgb(255, 255, 255);"></path></g></g></svg>